<svg width="151" height="19" viewBox="0 0 151 19" fill="none" xmlns="http://www.w3.org/2000/svg">
<path d="M79.1413 16.0989C79.1413 16.7713 78.8742 17.4161 78.3987 17.8916C77.9232 18.367 77.2784 18.6342 76.606 18.6342H66.4264C65.754 18.6342 65.1091 18.367 64.6337 17.8916C64.1582 17.4161 63.8911 16.7713 63.8911 16.0989V3.43006C63.8911 3.09712 63.9567 2.76744 64.0841 2.45984C64.2115 2.15224 64.3982 1.87276 64.6337 1.63733C64.8691 1.40191 65.1486 1.21516 65.4562 1.08775C65.7638 0.960338 66.0934 0.89476 66.4264 0.89476H76.6034C76.9364 0.89476 77.266 0.960338 77.5736 1.08775C77.8812 1.21516 78.1607 1.40191 78.3961 1.63733C78.6316 1.87276 78.8183 2.15224 78.9457 2.45984C79.0731 2.76744 79.1387 3.09712 79.1387 3.43006V5.93462H76.2526V3.45054H66.8489V16.1475H76.2551V13.5866H79.1438L79.1413 16.0989Z" fill="white"/>
<path d="M107.406 18.6341H104.517V0.897288H107.406V18.6341Z" fill="white"/>
<path d="M126.572 18.6342H116.456C115.784 18.6342 115.139 18.367 114.664 17.8916C114.188 17.4161 113.921 16.7713 113.921 16.0989V3.43006C113.921 2.75765 114.188 2.11279 114.664 1.63733C115.139 1.16187 115.784 0.89476 116.456 0.89476H126.572C126.905 0.89476 127.234 0.960338 127.542 1.08775C127.85 1.21516 128.129 1.40191 128.365 1.63733C128.6 1.87276 128.787 2.15224 128.914 2.45984C129.042 2.76744 129.107 3.09712 129.107 3.43006V16.0989C129.107 16.7713 128.84 17.4161 128.365 17.8916C127.889 18.367 127.244 18.6342 126.572 18.6342ZM126.216 16.1475V3.45054H116.81V16.1475H126.216Z" fill="white"/>
<path d="M10.6167 0.897288V16.1475H3.7637V13.5866H0.875V16.1065C0.891939 16.7708 1.16391 17.4031 1.63452 17.8723C2.10512 18.3415 2.73826 18.6115 3.40261 18.6264H10.9778C11.3268 18.6186 11.6698 18.5335 11.982 18.3772C12.2942 18.2208 12.5678 17.9972 12.7832 17.7224C13.2138 17.2853 13.4706 16.7063 13.5054 16.0937V0.897288H10.6167Z" fill="white"/>
<path d="M32.5841 0.897288V16.0809H23.1805V0.897288H20.2892V16.0988C20.2892 16.7701 20.5557 17.4139 21.0301 17.8888C21.5046 18.3637 22.1481 18.6309 22.8194 18.6316H35.4728V0.897288H32.5841Z" fill="white"/>
<path d="M98.1355 0.897288H84.7676H84.4296V3.45051H84.7702H90.0072V18.6316H92.8959V3.45051H98.1355H98.471V0.897288H98.1355Z" fill="white"/>
<path d="M54.4876 0.897307V14.0655V15.8786H54.1239L47.2914 0.830723H45.0865H42.1926V7.6709V18.6316H45.0814V7.6709V5.39682V3.5837H45.4424L52.3031 18.6316H54.4876H57.3763V0.897307H54.4876Z" fill="white"/>
<path d="M147.986 0.897307V14.0655V15.8786H147.623L140.79 0.830723H138.585H135.691V7.6709V18.6316H138.58V7.6709V5.39682V3.5837H138.941L145.802 18.6316H147.986H150.875V0.897307H147.986Z" fill="white"/>
</svg>
